<?xml version="1.0" encoding="UTF-8" standalone="no"?>
<!-- Created with Inkscape (http://www.inkscape.org/) -->

<svg
   version="1.1"
   id="svg1"
   width="1920"
   height="1080"
   viewBox="0 0 1920 1080"
   sodipodi:docname="Transparent Logo (Black).svg"
   inkscape:version="1.4.2 (ebf0e940d0, 2025-05-08)"
   xmlns:inkscape="http://www.inkscape.org/namespaces/inkscape"
   xmlns:sodipodi="http://sodipodi.sourceforge.net/DTD/sodipodi-0.dtd"
   xmlns="http://www.w3.org/2000/svg"
   xmlns:svg="http://www.w3.org/2000/svg">
  <defs
     id="defs1" />
  <sodipodi:namedview
     id="namedview1"
     pagecolor="#ffffff"
     bordercolor="#999999"
     borderopacity="1"
     inkscape:showpageshadow="2"
     inkscape:pageopacity="0"
     inkscape:pagecheckerboard="0"
     inkscape:deskcolor="#d1d1d1"
     showgrid="false"
     inkscape:zoom="0.35577898"
     inkscape:cx="1007.6481"
     inkscape:cy="579.01117"
     inkscape:window-width="1366"
     inkscape:window-height="699"
     inkscape:window-x="0"
     inkscape:window-y="0"
     inkscape:window-maximized="1"
     inkscape:current-layer="g1" />
  <g
     inkscape:groupmode="layer"
     inkscape:label="Image"
     id="g1">
    <path
       style="fill:#000000"
       d="M 295.66667,681.33333 C 295.3,680.96667 295,615.26522 295,535.33011 V 389.99355 L 446.25,390.24677 597.5,390.5 597.75334,536.25 598.00669,682 H 447.17001 c -82.96017,0 -151.13668,-0.3 -151.50334,-0.66667 z M 452.99863,662.25 c -7.5e-4,-0.9625 -2.92575,-12.71085 -6.5,-26.10745 C 442.92438,622.74596 440,610.83232 440,609.66779 c 0,-1.16452 2.87535,-11.57867 6.38966,-23.14255 3.51431,-11.56388 8.51509,-28.15143 11.11284,-36.86121 l 4.72318,-15.83597 -3.36284,-3.63356 c -3.21127,-3.46979 -11.02667,-11.82179 -22.99396,-24.5727 l -5.51695,-5.87819 -4.70601,13.37819 c -2.5883,7.35801 -5.02999,13.86324 -5.42596,14.45608 -0.58798,0.88028 -49.72471,22.65896 -96.43791,42.74379 L 314.06411,574.5 313.8852,601 c -0.0984,14.575 -0.18859,27.85 -0.20042,29.5 -0.0118,1.65 0.0543,9.8625 0.14686,18.25 L 314,664 h 69.5 c 65.52433,0 69.49992,-0.10011 69.49863,-1.75 z M 572,661.89248 c -1.375,-1.12253 -7,-5.74422 -12.5,-10.2704 -5.5,-4.52619 -21.7,-17.63215 -36,-29.12436 C 484.18091,590.8989 481.94348,589.08345 475.7769,583.77521 470.60868,579.32636 468,578.42035 468,581.07425 c 0,0.52591 -2.71158,8.55214 -6.02573,17.83606 l -6.02573,16.87986 2.04121,9.35491 c 3.0833,14.13085 8.09874,36.19255 8.54899,37.60492 0.31245,0.98011 12.01039,1.24282 54.17988,1.21673 L 574.5,663.93346 Z M 579,531 V 408 h -59.45765 l -59.45766,0 -1.98204,6.75 c -1.09013,3.7125 -4.50768,16.2 -7.59455,27.75 -3.08688,11.55 -6.30241,23.14422 -7.14563,25.76494 l -1.53313,4.76494 11.26434,12.23506 c 6.19538,6.72928 16.92128,18.23639 23.83533,25.57136 6.91404,7.33496 12.93447,14.30996 13.37873,15.5 0.59596,1.59642 -0.8822,6.54762 -5.63797,18.88477 l -6.44571,16.72108 6.63797,6.40453 c 5.42577,5.23496 40.07967,37.07374 73.13797,67.1966 3.575,3.25755 9.425,8.73745 13,12.17754 3.575,3.4401 6.8375,6.26023 7.25,6.26695 C 578.6625,653.9945 579,598.65 579,531 Z m -214.35161,2.79344 42.14839,-25.25128 2.10004,-8.56295 c 1.15501,-4.70962 4.09802,-17.31911 6.54,-28.02108 2.44198,-10.70197 6.71769,-29.24885 9.50157,-41.21529 C 427.72228,418.7764 430,408.7639 430,408.49284 430,408.22178 403.94618,408 372.10262,408 h -57.89739 l -0.35976,8.75 c -0.30444,7.40464 -0.27772,54.26004 0.0742,130.05668 l 0.0804,17.30668 4.25,-2.53432 c 2.3375,-1.39388 23.21678,-13.8974 46.39839,-27.7856 z M 788,634.5 V 613 h 4.5 c 3.99546,0 4.50172,0.25227 4.51531,2.25 0.009,1.29357 0.32762,1.78229 0.75,1.1497 1.35536,-2.02984 5.06988,-3.3997 9.21861,-3.3997 10.47977,0 17.30633,9.30968 14.84881,20.25 -2.13514,9.50516 -12.76423,14.64185 -21.19704,10.24384 C 799.06032,642.67223 797.59782,642 797.38569,642 797.17356,642 797,645.15 797,649 v 7 h -4.5 -4.5 z m 23.05296,0.94363 c 5.15006,-5.48199 1.59506,-15.48496 -5.47727,-15.41183 -3.46266,0.0358 -5.70216,1.44146 -7.41235,4.65246 -4.69367,8.8127 6.18639,17.89463 12.88962,10.75937 z M 696.05054,644.25 c 0.0278,-0.4125 3.97991,-9.525 8.78248,-20.25 l 8.73193,-19.5 4.96753,-0.2562 4.96752,-0.2562 8.7547,19.7562 c 4.81509,10.86591 8.75259,20.11836 8.75,20.56099 -0.003,0.44264 -2.10276,0.66764 -4.66705,0.5 -4.48731,-0.29335 -4.72032,-0.46434 -6.20665,-4.55479 L 728.58669,636 H 718.4292 708.27172 l -1.71857,4.5 c -1.67839,4.39481 -1.82182,4.5 -6.13586,4.5 -2.42951,0 -4.39455,-0.3375 -4.36675,-0.75 z m 28.45558,-17.23072 c -1.68546,-5.31041 -5.26688,-13.15419 -6.00612,-13.15419 -0.45738,0 -1.85442,2.51403 -3.10453,5.58673 C 711.21406,629.72948 710.97688,629 718.5,629 c 6.15818,0 6.58962,-0.14228 6.00612,-1.98072 z M 746,624.5 V 604 h 5 5 v 20.5 20.5 h -5 -5 z m 90.02043,18.25 C 829.59672,639.46764 827.5,636.08403 827.5,629 c 0,-6.8511 2.00374,-10.25096 8.09402,-13.73355 7.78203,-4.44998 18.20112,-2.1575 23.17316,5.09872 3.03599,4.43073 3.0725,12.54013 0.0783,17.38488 -4.23839,6.85786 -14.70287,9.15017 -22.82503,4.99995 z m 13.94162,-7.2096 C 855.19115,629.97427 851.5444,620 844.28023,620 839.41113,620 836,623.70765 836,629 c 0,8.03343 8.72135,12.11887 13.96205,6.5404 z m 24.16575,7.26724 C 870.47157,633.07075 864,614.58148 864,613.87254 c 0,-0.4799 1.6875,-0.87012 3.75,-0.86716 l 3.75,0.005 3.88509,11.12598 c 4.42588,12.67469 3.59112,12.93743 9.17133,-2.88674 l 2.90927,-8.25 h 3.64629 3.6463 l 3.82022,10.96731 c 2.10112,6.03201 3.99885,10.78867 4.21718,10.57034 0.21833,-0.21832 2.07336,-5.04111 4.12231,-10.7173 l 3.72535,-10.32035 3.67833,-0.31037 c 2.02308,-0.1707 3.67833,-0.11215 3.67833,0.13011 0,0.35826 -5.33042,15.47657 -10.20024,28.93026 -0.87116,2.40674 -1.52077,2.75 -5.20423,2.75 h -4.20881 L 895,635.5 c -1.86269,-5.225 -3.68294,-9.5 -4.04499,-9.5 -0.36205,0 -2.19256,4.1625 -4.0678,9.25 l -3.40952,9.25 -4.24168,0.30764 c -3.65649,0.26519 -4.36123,-0.0107 -5.10821,-2 z M 929.02043,642.75 C 922.59672,639.46764 920.5,636.08403 920.5,629 c 0,-9.22777 5.4063,-14.99597 14.78401,-15.77365 7.43582,-0.61663 13.14933,2.31176 15.76919,8.08232 1.04658,2.30523 1.91276,5.42883 1.92484,6.94133 L 953,631 h -12 c -7.68116,0 -12,0.37626 -12,1.04545 0,0.575 1.10455,2.15 2.45455,3.5 2.70301,2.70302 8.96776,3.36927 12.73303,1.35416 1.66538,-0.89128 2.43605,-0.72042 4.05561,0.89914 2.40772,2.40771 1.6682,3.9225 -2.83315,5.80328 -4.93792,2.0632 -11.33524,1.73063 -16.38961,-0.85203 z m 15.24601,-16.34977 c 0.32987,-0.32987 0.1215,-1.64946 -0.46306,-2.93241 -2.2044,-4.83815 -10.25178,-5.52113 -13.32671,-1.13105 -2.80517,4.00494 -1.9784,4.66323 5.85666,4.66323 4.03334,0 7.60323,-0.2699 7.93311,-0.59977 z M 960,629 v -16 h 4 c 3.33463,0 4,0.33301 4,2.00194 v 2.00195 l 3.73519,-2.00195 C 977.55571,611.88233 979,612.27956 979,617 c 0,3.72294 -0.19572,4 -2.82569,4 -1.66068,0 -3.72213,0.95422 -5,2.31445 -1.92345,2.04742 -2.17431,3.43192 -2.17431,12 V 645 h -4.5 -4.5 z m 33.5,14.67392 c -4.76284,-1.86373 -6.11927,-2.94462 -8.37525,-6.67392 -2.89829,-4.79108 -2.8347,-11.65073 0.14905,-16.07832 5.20328,-7.72115 13.76863,-10.01592 22.1823,-5.94292 4.6815,2.26629 7.0157,5.69288 8.0185,11.77124 l 0.7012,4.25 h -12.0879 c -13.18136,0 -14.70655,0.79501 -9.45304,4.92742 2.87228,2.25933 7.66144,2.67084 11.97894,1.0293 2.2698,-0.86296 3.0798,-0.70755 4.6865,0.89913 2.3505,2.35053 1.5826,3.87732 -2.8903,5.74618 -3.9881,1.66637 -10.75192,1.69898 -14.91,0.0719 z m 13.5,-18.51893 c 0,-2.82148 -3.6906,-5.55499 -7.5,-5.55499 -3.80938,0 -7.5,2.73351 -7.5,5.55499 0,1.62935 0.87668,1.84501 7.5,1.84501 6.6233,0 7.5,-0.21566 7.5,-1.84501 z m 20.9002,17.76985 c -1.9799,-1.18045 -4.4067,-3.5122 -5.3928,-5.18168 -2.2891,-3.87506 -2.3452,-12.17545 -0.114,-16.8772 3.1639,-6.66746 13.2328,-9.87395 19.9709,-6.3598 1.5754,0.82161 3.0379,1.49384 3.25,1.49384 0.2121,0 0.3857,-3.375 0.3857,-7.5 V 601 h 4.5 4.5 v 22 22 h -4.5 c -3.9412,0 -4.5,-0.26759 -4.5,-2.15499 0,-2.09717 -0.054,-2.10605 -2.0155,-0.33099 -3.15,2.85074 -11.6287,3.0673 -16.0843,0.41082 z m 15.4634,-7.5612 c 5.5361,-5.53605 1.7814,-15.25178 -5.925,-15.33184 -5.7842,-0.0601 -9.705,6.5072 -7.4406,12.46298 2.2882,6.01827 8.8152,7.41927 13.3656,2.86886 z m 43.9071,7.67254 c -11.1856,-5.07766 -11.9882,-20.45428 -1.4176,-27.15797 7.421,-4.70624 16.1916,-3.76839 21.8971,2.34146 l 2.2502,2.4097 -3.5111,1.67436 c -3.3619,1.60317 -3.5958,1.5898 -5.5003,-0.31468 -4.1295,-4.12951 -12.0761,-1.47469 -13.5853,4.53863 -2.1105,8.40897 7.1678,14.87889 13.724,9.56998 2.1162,-1.71361 2.6233,-1.76067 5.1108,-0.47432 1.5188,0.78541 2.7615,1.67105 2.7615,1.96808 0,1.96265 -2.5237,4.40098 -5.9911,5.78833 -5.3251,2.13071 -10.5384,2.0169 -15.7382,-0.34357 z M 1116,629 v -16 h 4 c 3.3235,0 4,0.33578 4,1.9853 0,1.97964 0.01,1.97965 3.25,0.004 1.7875,-1.08986 4.2625,-1.98325 5.5,-1.9853 1.959,-0.003 2.25,0.51367 2.25,3.99626 0,3.68926 -0.2136,4.00247 -2.75,4.0318 -6.0316,0.0698 -8.25,4.38111 -8.25,16.0333 V 645 h -4 -4 z m 28.357,15.00842 c -5.1695,-2.08616 -7.1387,-10.22673 -3.3824,-13.98298 2.3459,-2.34593 4.5505,-2.92478 12.4464,-3.26804 6.5785,-0.28598 7.8074,-1.52901 4.6415,-4.6949 -2.3203,-2.32028 -8.7844,-2.81689 -12.2844,-0.94376 -1.7579,0.94084 -2.38,0.74206 -3.912,-1.25 -1.0019,-1.30281 -1.8316,-2.66902 -1.8439,-3.03603 -0.06,-1.79944 9.2115,-4.05619 14.9567,-3.64061 11.0546,0.79961 13.7898,5.22562 13.9406,22.5579 L 1169,645 h -4.5 c -3.9955,0 -4.5017,-0.25227 -4.5153,-2.25 -0.01,-1.29357 -0.3276,-1.78229 -0.75,-1.1497 -2.0788,3.1133 -9.9665,4.39002 -14.8777,2.40812 z m 13.893,-6.80444 c 0.9625,-0.83267 1.75,-2.56921 1.75,-3.85897 0,-2.10384 -0.4514,-2.34501 -4.3892,-2.34501 -7.6378,0 -11.508,5.62278 -5.4203,7.87478 2.6961,0.99733 5.6937,0.37589 8.0595,-1.6708 z m 28.25,6.58979 c -12.3748,-4.32429 -14.1972,-20.03759 -3.2634,-28.13704 6.0512,-4.4826 18.7559,-2.77385 22.5073,3.0272 1.3129,2.03017 1.1931,2.29731 -1.7018,3.79428 -2.9426,1.5217 -3.2571,1.49781 -5.7129,-0.43393 -6.0518,-4.76035 -13.3292,-0.75418 -13.3292,7.33769 0,3.64104 0.49,4.85831 2.6349,6.54545 3.3839,2.6618 8.1148,2.65635 10.9558,-0.0126 2.1563,-2.02577 2.3007,-2.0344 5.0644,-0.30266 1.5647,0.9804 3.0296,1.91598 3.2554,2.07907 0.2258,0.16309 -0.4492,1.26139 -1.5,2.44068 -3.9699,4.45541 -12.1222,6.03403 -18.9105,3.66188 z M 1213,623 v -22 h 4.5 4.5 v 12 c 0,6.6 0.3516,12 0.7813,12 0.4297,0 3.4531,-2.7 6.7187,-6 5.8261,-5.88756 6.0406,-6 11.4419,-6 h 5.5045 l -6.7936,6.84598 -6.7935,6.84597 6.2193,7.90403 c 3.4206,4.34721 6.6574,8.46652 7.1928,9.15402 0.7528,0.96664 -0.2444,1.24047 -4.399,1.20795 l -5.3724,-0.0421 -5,-6.33927 -5,-6.33926 -2.25,2.05563 c -1.6698,1.52552 -2.25,3.17117 -2.25,6.38132 V 645 h -4.5 -4.5 z m 56,6 v -16 h 4 c 3.3235,0 4,0.33578 4,1.9853 0,1.97964 0.01,1.97965 3.25,0.004 4.4424,-2.70857 10.5953,-2.58188 14.8605,0.30597 l 3.3895,2.29501 3.5,-2.38408 c 2.8922,-1.97005 4.423,-2.30998 8.8149,-1.95736 9.5022,0.76292 12.0549,5.59899 12.1415,23.00142 L 1323,645 h -4.5 -4.5 v -9.56574 c 0,-10.08071 -0.7404,-12.6898 -4.1136,-14.49508 -3.0705,-1.64323 -7.5019,0.51913 -8.8215,4.30448 -0.5857,1.68013 -1.0649,6.81264 -1.0649,11.40556 V 645 h -4.5 -4.5 v -10.5 c 0,-9.16667 -0.254,-10.75397 -2,-12.5 -2.6753,-2.67532 -5.5695,-2.52137 -8.5455,0.45455 -2.2802,2.28026 -2.4545,3.16778 -2.4545,12.5 V 645 h -4.5 -4.5 z m 71.8188,15.01892 c -7.1011,-2.14305 -10.8056,-7.29201 -10.8056,-15.01892 0,-6.54345 2.1193,-10.31901 7.6828,-13.68694 6.4826,-3.92433 15.9651,-2.65593 20.993,2.80806 2.3014,2.50092 4.7195,10.87017 3.4947,12.09512 -0.3939,0.39394 -6.1089,0.84394 -12.6999,1 L 1337.5,631.5 l 3.1731,3.25 c 3.4707,3.55486 7.9695,4.2812 12.8222,2.07017 2.2329,-1.01735 2.8822,-0.88715 4.7148,0.94547 1.7645,1.76453 1.9087,2.38629 0.8494,3.66272 -2.5331,3.05215 -12.1742,4.42139 -18.2407,2.59056 z M 1354,625.93426 c 0,-4.51527 -5.4544,-7.59945 -10.4967,-5.93535 -3.0267,0.99889 -6.0776,5.09346 -4.7697,6.40132 1.0921,1.09215 15.2664,0.65952 15.2664,-0.46597 z m 16.0767,16.47685 c -5.4386,-4.57627 -3.5832,-13.34586 3.1479,-14.87827 1.2515,-0.28492 4.9754,-0.63387 8.2754,-0.77544 5.3719,-0.23045 5.9666,-0.46676 5.6808,-2.2574 -0.5232,-3.27876 -3.2426,-4.67285 -8.1808,-4.19382 -2.475,0.24009 -5.4266,0.74944 -6.5591,1.13188 -1.603,0.54133 -2.3229,0.11639 -3.25,-1.91841 -1.5594,-3.42263 -1.7598,-3.07486 2.8293,-4.91107 5.1715,-2.06922 13.2321,-2.0572 17.6227,0.0263 5.3261,2.52741 6.3571,5.57884 6.3571,18.8155 V 645 h -4 c -3.38,0 -4,-0.32124 -4,-2.07258 v -2.07258 l -2.6349,2.07258 c -3.942,3.10084 -11.2843,2.85288 -15.2884,-0.51631 z m 16.5942,-6.03162 c 2.3762,-3.62647 1.0895,-5.37949 -3.9484,-5.37949 -5.0483,0 -8.095,1.82705 -7.5724,4.54098 0.8684,4.5091 8.7403,5.08204 11.5208,0.83851 z m 21.3291,7.9487 c -0.825,-0.33845 -2.527,-0.9951 -3.7822,-1.45925 -2.2071,-0.81614 -2.2295,-0.94562 -0.6824,-3.93747 1.1817,-2.28511 2.0395,-2.90695 3.2822,-2.37944 0.9253,0.39277 3.5897,1.17886 5.9208,1.74686 5.0239,1.22416 9.6031,-0.28693 9.0813,-2.99672 -0.3168,-1.64487 -2.477,-2.44481 -10.1814,-3.77033 -8.4117,-1.44718 -11.4388,-9.47463 -5.6604,-15.01064 2.3343,-2.23645 4.1612,-2.95112 8.4536,-3.30708 5.654,-0.46887 11.0983,0.19947 13.3697,1.64124 1.049,0.6659 1.061,1.353 0.062,3.54641 -1.004,2.2036 -1.7009,2.60469 -3.6678,2.11103 -5.9095,-1.4832 -7.8696,-1.59178 -10.5178,-0.58265 -4.9953,1.90359 -3.0406,4.22823 5.3246,6.33217 9.0419,2.27413 10.9982,3.82264 10.9982,8.70558 0,2.77176 -0.7384,4.36533 -3.0479,6.57799 -2.7219,2.60775 -3.8182,2.94562 -10.25,3.15886 -3.9612,0.13133 -7.8771,-0.0381 -8.7021,-0.37656 z m 34.7626,-0.83614 C 1438.0679,640.84626 1437,637.33581 1437,624.54966 V 613 h 4 4 l 0.1,8.75 c 0.1234,10.83271 0.7916,13.33166 4.0546,15.16313 2.135,1.19835 3.0925,1.22729 5.6436,0.1706 4.0113,-1.66154 5.2021,-5.26298 5.2021,-15.73295 V 613 h 4 4 v 16 16 h -4 c -3.4292,0 -4,-0.3075 -4,-2.15499 0,-2.09717 -0.054,-2.10605 -2.0155,-0.33099 -2.7283,2.46911 -11.5684,3.0371 -15.2219,0.97803 z M 1478,629 v -16 h 4 c 3.3235,0 4,0.33578 4,1.9853 0,1.97964 0.01,1.97965 3.25,0.004 1.7875,-1.08986 4.2625,-1.98325 5.5,-1.9853 1.959,-0.003 2.25,0.51367 2.25,3.99626 0,3.68926 -0.2136,4.00247 -2.75,4.0318 -6.0316,0.0698 -8.25,4.38111 -8.25,16.0333 V 645 h -4 -4 z m 33.8188,15.01892 c -7.1011,-2.14305 -10.8056,-7.29201 -10.8056,-15.01892 0,-6.54345 2.1193,-10.31901 7.6828,-13.68694 6.4826,-3.92433 15.9651,-2.65593 20.993,2.80806 2.3014,2.50092 4.7195,10.87017 3.4947,12.09512 -0.3939,0.39394 -6.1089,0.84394 -12.6999,1 L 1508.5,631.5 l 3.1731,3.25 c 3.4707,3.55486 7.9695,4.2812 12.8222,2.07017 2.2329,-1.01735 2.8822,-0.88715 4.7148,0.94547 1.7645,1.76453 1.9087,2.38629 0.8494,3.66272 -2.5331,3.05215 -12.1742,4.42139 -18.2407,2.59056 z M 1525,625.93426 c 0,-4.51527 -5.4544,-7.59945 -10.4967,-5.93535 -3.0267,0.99889 -6.0776,5.09346 -4.7697,6.40132 1.0921,1.09215 15.2664,0.65952 15.2664,-0.46597 z M 1540,629 v -16 h 4.5 c 3.8555,0 4.5,0.29075 4.5,2.02994 0,2.00934 0.03,2.00798 2.9272,-0.13423 3.7335,-2.76029 11.9316,-2.29789 15.3554,0.86608 l 2.2174,2.0491 3.4718,-2.40544 c 4.0416,-2.80027 9.6498,-3.15336 14.3863,-0.90574 5.253,2.49269 6.0495,4.74011 6.468,18.25029 l 0.3796,12.25 H 1589.6028 1585 v -10.42857 c 0,-11.01099 -0.605,-12.67652 -5.1261,-14.11145 -2.6476,-0.8403 -7.0588,2.26403 -8.0004,5.63017 -0.3708,1.32542 -0.719,6.12235 -0.7738,10.65985 L 1571,645 h -4 -4 v -8.9349 c 0,-4.9142 -0.4285,-10.06183 -0.9521,-11.4392 -2.0413,-5.36888 -8.9236,-5.70067 -11.5828,-0.55839 -0.9702,1.87605 -1.4651,5.89039 -1.4651,11.88283 V 645 h -4.5 -4.5 z m 71.5,14.67392 c -4.7628,-1.86373 -6.1193,-2.94462 -8.3753,-6.67392 -2.8982,-4.79108 -2.8347,-11.65073 0.1491,-16.07832 5.2033,-7.72115 13.7686,-10.01592 22.1823,-5.94292 4.6815,2.26629 7.0157,5.69288 8.0185,11.77124 l 0.7012,4.25 h -12.0879 c -13.1814,0 -14.7066,0.79501 -9.453,4.92742 2.8722,2.25933 7.6614,2.67084 11.9789,1.0293 2.2698,-0.86296 3.0798,-0.70755 4.6865,0.89913 2.3505,2.35053 1.5826,3.87732 -2.8903,5.74618 -3.9881,1.66637 -10.7519,1.69898 -14.91,0.0719 z m 13.5,-18.51893 c 0,-2.82148 -3.6906,-5.55499 -7.5,-5.55499 -3.8094,0 -7.5,2.73351 -7.5,5.55499 0,1.62935 0.8767,1.84501 7.5,1.84501 6.6233,0 7.5,-0.21566 7.5,-1.84501 z M 1641,629 v -16 h 4 c 3.3105,0 4,0.33895 4,1.96627 0,1.93184 0.062,1.92968 3.5415,-0.12324 2.7474,-1.62102 4.6605,-1.98199 8.5326,-1.60993 9.2925,0.89289 11.911,5.72933 11.9203,22.0169 L 1673,645 h -4.5 -4.5 v -10.04545 c 0,-9.33222 -0.1743,-10.21974 -2.4545,-12.5 -3.0862,-3.08614 -5.6749,-3.10744 -9.1995,-0.0757 -2.6182,2.25205 -2.7872,2.91822 -3.1721,12.5 L 1648.7674,645 H 1644.8837 1641 Z m 46.3043,14.04396 c -3.5665,-2.17464 -4.164,-4.21133 -4.5598,-15.54396 -0.2239,-6.41097 -0.4338,-7.02689 -2.4945,-7.31955 -1.7488,-0.24837 -2.25,-0.97237 -2.25,-3.25 0,-2.45915 0.4021,-2.93045 2.5,-2.93045 2.25,0 2.5,-0.4 2.5,-4 v -4 h 4.5 4.5 v 4 4 h 4 c 3.7778,0 4,0.16667 4,3 0,2.83815 -0.2179,3 -4.0389,3 h -4.039 l 0.289,8.75 0.2889,8.75 3.6716,0.30569 c 3.0113,0.25072 3.8502,0.8182 4.6651,3.15558 0.8728,2.50391 0.7306,2.92039 -1.1716,3.43065 -4.1947,1.1252 -9.1999,0.57938 -12.3608,-1.34796 z M 764,628.5 V 625 h 8 8 v 3.5 3.5 h -8 -8 z m 503,-79.62233 c -11.4742,-1.5208 -27.8319,-7.5137 -33.7805,-12.37602 -0.1542,-0.12608 1.7012,-4.49874 4.1231,-9.717 l 4.4036,-9.48776 8.5951,4.20816 c 10.56,5.1702 18.4409,6.99663 30.1587,6.9894 7.5848,-0.005 9.7862,-0.3978 14,-2.5 9.7664,-4.87234 10.6529,-13.4764 1.9161,-18.59651 -2.4063,-1.41016 -11.0218,-4.28131 -19.1456,-6.38035 -8.1238,-2.09903 -17.3725,-4.79946 -20.5528,-6.00095 -15.1702,-5.7312 -23.0225,-17.79211 -21.1699,-32.51664 2.4976,-19.85244 20.0847,-31.5 47.5629,-31.5 12.0505,0 17.8978,0.94065 28.9035,4.64965 12.2553,4.13012 12.0033,3.63246 7.5436,14.90016 -2.2835,5.76946 -4.2405,9.37497 -4.9238,9.07149 -0.6237,-0.27702 -4.6002,-1.88054 -8.8368,-3.56338 -13.1399,-5.21948 -30.7911,-5.69696 -38.3312,-1.03688 -4.0542,2.50559 -6.8306,8.04236 -5.9785,11.92214 1.1759,5.35385 5.3468,7.59769 22.2397,11.96452 15.9705,4.12839 27.0015,7.76149 30.9213,10.18406 4.3087,2.66293 10.2363,9.38822 12.0044,13.61987 2.0051,4.79894 1.9528,15.9487 -0.1039,22.14077 -1.9705,5.93265 -8.8798,14.09051 -14.9148,17.60998 -9.728,5.67318 -29.1604,8.46621 -44.6342,6.41529 z m 126.3666,0.1173 c -14.8903,-2.05928 -25.799,-7.36659 -35.897,-17.46457 -11.7878,-11.78784 -16.7895,-24.15986 -16.7895,-41.5304 0,-17.1425 5.0405,-29.81049 16.3396,-41.06527 12.3191,-12.27079 23.3304,-16.79001 42.9803,-17.63978 9.6686,-0.41813 13.9723,-0.17068 19,1.09243 9.0934,2.28455 19.8666,7.78811 25.9476,13.25538 l 5.158,4.63755 -2.8028,2.95379 c -1.5415,1.62458 -5.3362,5.15921 -8.4327,7.85473 l -5.6299,4.90095 -3.8603,-3.53589 c -2.1231,-1.94474 -6.3397,-4.75495 -9.3701,-6.24489 -4.9291,-2.4235 -6.6164,-2.709 -16.0098,-2.709 -9.2552,0 -11.1663,0.31242 -16.12,2.63517 -7.9054,3.70676 -13.3266,8.99532 -17.1203,16.70142 -3.0535,6.20246 -3.2597,7.28695 -3.2597,17.14238 0,9.27787 0.3114,11.18509 2.6352,16.14104 6.5246,13.915 17.9783,21.02914 33.8663,21.03508 9.4069,0.004 17.1941,-2.74876 24.4127,-8.62839 l 5.2318,-4.26138 8.2534,7.61734 8.2533,7.61734 -4.3263,4.15488 c -12.5992,12.09972 -32.9212,18.04222 -52.4598,15.34009 z M 700,490.5 V 433 h 13 13 v 57.5 57.5 h -13 -13 z m 54,0 V 433 l 11.25,0.0171 11.25,0.0171 27.40479,33.48888 c 15.07264,18.41889 28.01014,33.99128 28.75,34.60532 C 833.77733,502.06009 834,496.5139 834,467.62244 V 433 h 13 13 V 490.5 548 H 849.24731 838.49462 L 809.49731,512.75 780.5,477.5 780.23721,512.75 779.97441,548 H 766.98721 754 Z m 134,0 V 433 h 43.5 43.5 v 9.98534 9.98533 L 944.75,453.23534 914.5,453.5 v 15.5 15.5 l 26.75,0.26633 26.75,0.26634 V 495 504.96733 L 941.25,505.23367 914.5,505.5 914.23011,526.75 913.96022,548 H 900.98011 888 Z m 106,0 V 433 h 30.1819 c 27.5972,0 30.8536,0.18123 38.0248,2.11625 13.5291,3.65053 22.6031,11.03783 28.1087,22.88375 1.7287,3.71933 2.0996,6.4987 2.1381,16.02103 0.045,11.04848 -0.088,11.79486 -3.2402,18.19736 -3.4203,6.94759 -9.8852,13.65783 -15.9937,16.60064 -1.8042,0.86919 -3.0849,2.0896 -2.8461,2.71202 0.2389,0.62241 5.1235,7.84505 10.8548,16.05031 5.7312,8.20525 11.2262,16.15614 12.2111,17.66864 l 1.7906,2.75 h -13.9438 -13.9439 l -10.8639,-15.75 c -5.9751,-8.6625 -11.3396,-16.08061 -11.9211,-16.48469 -0.5815,-0.40408 -6.3448,-0.74158 -12.8073,-0.75 L 1020,515 v 16.5 16.5 h -13 -13 z m 61.6242,1.75496 c 14.3992,-7.56671 15.0493,-28.07284 1.1247,-35.47372 -3.807,-2.02339 -5.939,-2.2944 -20.4989,-2.60579 L 1020,453.82792 v 20.69082 20.69082 l 15.75,-0.39368 c 13.7541,-0.34378 16.2726,-0.66831 19.8742,-2.56092 z m 49.4641,44.52302 c 2.758,-6.20289 14.2946,-32.10267 25.6369,-57.55507 l 20.6223,-46.27709 13.37,0.27709 13.37,0.27709 25.4562,56.88858 C 1217.5447,521.6773 1229,547.4525 1229,547.6668 c 0,0.2143 -6.158,0.26444 -13.6844,0.11142 l -13.6843,-0.27822 -5.0657,-12.24089 -5.0656,-12.24089 -27.1156,-0.009 -27.1157,-0.009 -5.0475,12.25 -5.0476,12.25 -13.5499,0.27798 -13.5499,0.27798 z M 1183,502.6758 c 0,-1.57146 -18.0715,-43.12708 -18.688,-42.97337 -0.6428,0.16025 -18.312,41.5986 -18.312,42.94579 0,0.19348 8.325,0.35178 18.5,0.35178 10.175,0 18.5,-0.14589 18.5,-0.3242 z m 273.0883,34.10218 c 2.758,-6.20289 14.2946,-32.10267 25.6369,-57.55507 l 20.6223,-46.27709 13.37,0.27709 13.37,0.27709 25.4562,56.88858 C 1568.5447,521.6773 1580,547.4525 1580,547.6668 c 0,0.2143 -6.158,0.26444 -13.6844,0.11142 l -13.6843,-0.27822 -5.0657,-12.24089 -5.0656,-12.24089 -27.1156,-0.009 -27.1157,-0.009 -5.0475,12.25 -5.0476,12.25 -13.5499,0.27798 -13.5499,0.27798 z M 1534,502.6758 c 0,-1.57146 -18.0715,-43.12708 -18.688,-42.97337 -0.6428,0.16025 -18.312,41.5986 -18.312,42.94579 0,0.19348 8.325,0.35178 18.5,0.35178 10.175,0 18.5,-0.14589 18.5,-0.3242 z M 1593,490.5 V 433 l 11.25,0.0608 11.25,0.0608 28,34.40643 c 15.4,18.92353 28.3375,34.42118 28.75,34.43921 0.4125,0.018 0.75,-15.49221 0.75,-34.46721 V 433 h 13 13 v 57.5 57.5 h -10.8762 -10.8762 L 1648.3738,512.8631 1619.5,477.72621 1619.2372,512.8631 1618.9744,548 H 1605.9872 1593 Z"
       id="path1" />
  </g>
</svg>
